<svg xmlns="http://www.w3.org/2000/svg" width="51.639" height="24.312" viewBox="0 0 51.639 24.312"><defs><style>.a{fill:#9b9999;}.b{fill:#208a6f;}.c{fill:#707070;}.d{fill:#fff;}.e{fill:#878888;}.f{fill:#313030;}.g{fill:#0c2518;}.h{fill:#aeaeae;}.i{fill:#101010;}</style></defs><g transform="translate(414.116 601.301) rotate(-178)"><path class="a" d="M518.873,622.08a1.358,1.358,0,0,1-1.481,1.187H492.838a1.359,1.359,0,0,1-1.481-1.187V611.544a1.359,1.359,0,0,1,1.481-1.187h24.554a1.359,1.359,0,0,1,1.481,1.187Z" transform="translate(-99.802 -41.223)"/><rect class="b" width="27.516" height="8.902" transform="translate(391.555 571.164)"/><rect class="c" width="27.516" height="0.982" transform="translate(391.555 579.682)"/><path class="c" d="M518.853,728.753a1.523,1.523,0,0,0,.02-.232v-.629H491.357v.629a1.53,1.53,0,0,0,.02.232Z" transform="translate(-99.802 -147.092)"/><path class="c" d="M492.246,737.4a1.481,1.481,0,0,0,1.388.983h24.554a1.482,1.482,0,0,0,1.388-.983Z" transform="translate(-100.604 -155.605)"/><rect class="c" width="27.516" height="0.801" transform="translate(391.555 570.734)"/><rect class="c" width="27.516" height="0.68" transform="translate(391.555 569.894)"/><path class="c" d="M518.907,611.767a1.489,1.489,0,0,0-1.476-1.41H492.877a1.489,1.489,0,0,0-1.476,1.41Z" transform="translate(-99.841 -41.964)"/><path class="c" d="M518.873,651.932c0,.409-.663.741-1.481.741H492.838c-.818,0-1.481-.332-1.481-.741v-6.577c0-.409.663-.741,1.481-.741h24.554c.818,0,1.481.332,1.481.741Z" transform="translate(-99.802 -73.056)"/><g transform="translate(382.862 563.464)"><rect width="9.984" height="3.635" rx="1.818" transform="translate(0 10.307)"/><path class="c" d="M374.667,640.879h-5.173c-5.468.067-7.274,2.259-7.274,3.017v2.909c0,.757,1.945,3.109,6.491,2.972l5.957.012Z" transform="translate(-360.824 -633.23)"/><path class="c" d="M469.09,590.287s-5.592,1.949-6.577,7.175c0,0-1.587,9.952,6.577,10.588Z" transform="translate(-454.079 -587.044)"/><g transform="translate(7.144 0)"><path class="a" d="M481.5,628.666a5.435,5.435,0,0,0-3.074,3.781c-.514,2.739.148,7.111,3.229,8.451Z" transform="translate(-475.44 -622.534)"/><path class="c" d="M456.958,657.427a2.417,2.417,0,0,1-1.279,2.176l-3.173.438a1.337,1.337,0,0,1-1.27-1.395v-2.918a1.337,1.337,0,0,1,1.27-1.4l3.173.435c.7,0,1.279,1.329,1.279,2.1Z" transform="translate(-451.236 -645.063)"/><path class="d" d="M452.91,654.389l-.4-.056a1.337,1.337,0,0,0-1.27,1.4v2.918a1.337,1.337,0,0,0,1.27,1.395l.4-.056Z" transform="translate(-451.236 -645.063)"/><path class="e" d="M462.921,654.389l-.4-.056c-.034,0-.068,0-.1.006v5.7c.034,0,.067.005.1.005l.4-.056Z" transform="translate(-461.247 -645.063)"/><g transform="translate(4.724)"><g transform="translate(0.005 10.005)"><path class="c" d="M501.255,674.84l-4.761-.235a15.729,15.729,0,0,0,.548,4.135,42.812,42.812,0,0,0,2.412,5.78l.7-.725s-.825-3.486-.256-4.212A8.937,8.937,0,0,0,501.255,674.84Z" transform="translate(-496.492 -674.605)"/><g transform="translate(2.37 8.717)"><path class="f" d="M524.171,752.9a.3.3,0,0,1-.16.369l-.606.2a.253.253,0,0,1-.3-.216l-1.117-4.551a.3.3,0,0,1,.16-.369l.606-.2a.253.253,0,0,1,.3.217Z" transform="translate(-521.681 -747.953)"/><path class="g" d="M520.7,746.819c.02.08,0,.158-.045.173l-1.356.458c-.045.015-.1-.037-.119-.117h0c-.02-.08,0-.158.046-.173l1.356-.458c.046-.015.1.037.119.117Z" transform="translate(-519.176 -746.699)"/></g></g><path class="c" d="M501.211,608.783l-4.761-.4a10.237,10.237,0,0,1,.443-3.241,53.466,53.466,0,0,1,2.516-5.868l.7.725s-.825,3.486-.256,4.212A8.336,8.336,0,0,1,501.211,608.783Z" transform="translate(-496.443 -594.942)"/><g transform="translate(2.375)"><path class="f" d="M524.171,564.042a.3.3,0,0,0-.16-.369l-.606-.2a.253.253,0,0,0-.3.217l-1.117,4.551a.3.3,0,0,0,.16.369l.606.2a.253.253,0,0,0,.3-.217Z" transform="translate(-521.681 -563.464)"/><path class="g" d="M520.7,603.577c.02-.08,0-.158-.045-.173l-1.356-.458c-.045-.015-.1.037-.119.118h0c-.02.08,0,.158.046.173l1.356.458c.046.015.1-.037.119-.117Z" transform="translate(-519.176 -598.17)"/></g></g><path class="h" d="M515.216,655.612c0,1.443-.669,2.612-1.494,2.612s-1.494-1.169-1.494-2.612S512.9,653,513.722,653,515.216,654.169,515.216,655.612Z" transform="translate(-505.855 -643.829)"/><path class="h" d="M515.216,655.612c0,1.443-.669,2.612-1.494,2.612s-1.494-1.169-1.494-2.612S512.9,653,513.722,653,515.216,654.169,515.216,655.612Z" transform="translate(-505.855 -643.829)"/><path class="h" d="M521.437,660.227c0,1.092-.506,1.977-1.131,1.977s-1.131-.885-1.131-1.977.506-1.977,1.131-1.977S521.437,659.135,521.437,660.227Z" transform="translate(-512.076 -648.448)"/></g></g><g transform="translate(400.714 567.111)"><path class="c" d="M675.623,602.89c0,.8-.411,1.449-.919,1.449h0c-.508,0-.919-.649-.919-1.449v-3.322c0-.8.411-1.449.919-1.449h0c.508,0,.919.649.919,1.449Z" transform="translate(-668.525 -597.576)"/><path class="c" d="M675.623,715.572c0,.8-.411,1.449-.919,1.449h0c-.508,0-.919-.649-.919-1.449V712.25c0-.8.411-1.449.919-1.449h0c.508,0,.919.649.919,1.449Z" transform="translate(-668.525 -700.067)"/><path class="c" d="M657.072,639.644c0,.656-1.134,1.187-2.532,1.187H625.977c-1.4,0-2.531-.531-2.531-1.187v-5.368c0-.656,1.133-1.187,2.531-1.187H654.54c1.4,0,2.532.532,2.532,1.187Z" transform="translate(-623.446 -628.317)"/><path class="c" d="M655.81,694.945a13.207,13.207,0,0,1-9.706,4.942,121.4,121.4,0,0,1-12.2-.1s-8.349-1.584-10.458-8.351Z" transform="translate(-623.446 -683.04)"/><path class="c" d="M655.81,598.68a13.207,13.207,0,0,0-9.706-4.941,121.412,121.412,0,0,0-12.2.1s-8.349,1.584-10.458,8.351Z" transform="translate(-623.446 -593.632)"/><path class="c" d="M680.21,694.246a10.576,10.576,0,0,1-7.773,3.957,97.2,97.2,0,0,1-9.771-.083s-6.686-1.268-8.375-6.688Z" transform="translate(-651.069 -683.04)"/><path class="c" d="M684.916,614.306a10.069,10.069,0,0,0-7.4-3.768,92.6,92.6,0,0,0-9.3.079s-6.365,1.207-7.973,6.367Z" transform="translate(-656.396 -608.423)"/><g transform="translate(18.526 2.26)"><path class="c" d="M805.821,649.365c0,.231-.3.417-.673.417h0c-.372,0-.673-.187-.673-.417V640.37c0-.231.3-.417.673-.417h0c.372,0,.673.187.673.417Z" transform="translate(-804.086 -638.375)"/><g transform="translate(3.736)"><path class="c" d="M837.5,640.431c0,.132-.162.239-.362.239h0c-.2,0-.362-.107-.362-.239V637.1c0-.132.162-.24.362-.24h0c.2,0,.362.107.362.24Z" transform="translate(-836.744 -635.653)"/><path class="c" d="M839.064,635.412a.587.587,0,0,1-.54.625h-1.484a.587.587,0,0,1-.54-.625h0a.587.587,0,0,1,.54-.625h1.484a.587.587,0,0,1,.54.625Z" transform="translate(-836.501 -633.833)"/><g transform="translate(0.983)"><path class="c" d="M847.485,626.99s1.892.474,1.544,1.917c-.182.754-2.206,1.448-2.876,1.018a4.456,4.456,0,0,1-.07-2.72C846.219,626.86,846.949,626.839,847.485,626.99Z" transform="translate(-845.911 -626.901)"/><path class="c" d="M846.083,627.209c.1-.246.5-.327.915-.3v3.134a1.354,1.354,0,0,1-.845-.116A4.456,4.456,0,0,1,846.083,627.209Z" transform="translate(-845.911 -626.904)"/><path class="c" d="M849.091,628.22c-.266-.911-1.538-1.23-1.538-1.23-.536-.151-1.266-.129-1.4.215a3.544,3.544,0,0,0-.164,1.015Z" transform="translate(-845.98 -626.901)"/></g></g><g transform="translate(3.736 7.537)"><path class="c" d="M837.5,689.479c0-.132-.162-.24-.362-.24h0c-.2,0-.362.107-.362.24v3.335c0,.132.162.24.362.24h0c.2,0,.362-.107.362-.24Z" transform="translate(-836.744 -689.24)"/><g transform="translate(0 1.862)"><path class="c" d="M839.064,713.144a.587.587,0,0,0-.54-.624h-1.484a.587.587,0,0,0-.54.624h0a.587.587,0,0,0,.54.625h1.484a.587.587,0,0,0,.54-.625Z" transform="translate(-836.501 -711.567)"/><g transform="translate(0.983)"><path class="c" d="M847.485,707.7s1.892-.474,1.544-1.917c-.182-.753-2.206-1.448-2.876-1.018a4.456,4.456,0,0,0-.07,2.72C846.219,707.832,846.949,707.854,847.485,707.7Z" transform="translate(-845.911 -704.636)"/><path class="c" d="M846.083,707.49c.1.246.5.327.915.3v-3.134a1.355,1.355,0,0,0-.845.116A4.456,4.456,0,0,0,846.083,707.49Z" transform="translate(-845.911 -704.639)"/><path class="c" d="M849.091,719.828c-.266.911-1.538,1.23-1.538,1.23-.536.151-1.266.129-1.4-.215a3.544,3.544,0,0,1-.164-1.015Z" transform="translate(-845.98 -717.991)"/></g></g></g><path class="c" d="M803.193,632.185a1.234,1.234,0,1,1-1.221-1.413A1.328,1.328,0,0,1,803.193,632.185Z" transform="translate(-800.75 -630.304)"/><path class="c" d="M803.193,703.095a1.234,1.234,0,1,1-1.221-1.413A1.328,1.328,0,0,1,803.193,703.095Z" transform="translate(-800.75 -692.64)"/><g transform="translate(8.359 3.848)"><rect class="c" width="3.892" height="4.598"/><rect class="c" width="1.55" height="4.598"/><rect class="c" width="3.892" height="1.17"/></g><g transform="translate(1.785 2.135)"><path class="c" d="M826.1,644.557h-7.2c-.587,0-1.062.767-1.062,1.714v4.6c0,.946.475,1.713,1.062,1.713h7.2c.587,0,1.062-.767,1.062-1.713v-4.6C827.161,645.324,826.686,644.557,826.1,644.557Zm.256,5.957c0,.812-.374,1.471-.835,1.471h-5.659c-.461,0-.835-.658-.835-1.471v-3.945c0-.812.374-1.471.835-1.471h5.659c.461,0,.835.659.835,1.471Z" transform="translate(-817.835 -644.557)"/><path class="c" d="M850.419,653.375a.341.341,0,0,1-.314.363h0a.341.341,0,0,1-.313-.363v-7.139a.341.341,0,0,1,.313-.363h0a.341.341,0,0,1,.314.363Z" transform="translate(-846.453 -645.714)"/><path class="c" d="M879.376,653.375a.341.341,0,0,1-.313.363h0a.341.341,0,0,1-.314-.363v-7.139a.341.341,0,0,1,.314-.363h0a.341.341,0,0,1,.313.363Z" transform="translate(-872.384 -645.714)"/></g></g><path class="c" d="M647.064,616.09c-3.463,1.75-4.26,1.793-7.941,2.452s-2.89,2.588-2.89,2.588l.137.011-.137.011s-.791,1.929,2.89,2.588,4.478.7,7.941,2.452c2.834,1.432,8.039,1.809,8.6-3.349v-3.4C655.1,614.281,649.9,614.658,647.064,616.09Z" transform="translate(-634.833 -612.557)"/><path class="i" d="M652.129,625.314a18.482,18.482,0,0,1-6.715,1.964c-3.112.528-2.443,2.074-2.443,2.074l.116.009-.116.008s-.669,1.546,2.443,2.073a18.484,18.484,0,0,1,6.715,1.965c2.4,1.147,6.8,1.45,7.274-2.683V628C658.926,623.864,654.525,624.166,652.129,625.314Z" transform="translate(-640.876 -620.828)"/><path class="c" d="M654.292,602.067a18.122,18.122,0,0,1,9.252-3.948S657.788,598.086,654.292,602.067Z" transform="translate(-651.069 -597.576)"/><path class="c" d="M690.942,748.131s3.953,1.462,13.183,1.583C704.125,749.714,693.746,749.853,690.942,748.131Z" transform="translate(-683.889 -732.883)"/></g></g></svg>